<?xml version="1.0" encoding="utf-8"?>
<!-- Generator: Adobe Illustrator 26.0.1, SVG Export Plug-In . SVG Version: 6.00 Build 0)  -->
<svg version="1.1" id="Layer_1" xmlns="http://www.w3.org/2000/svg" xmlns:xlink="http://www.w3.org/1999/xlink" x="0px" y="0px"
	 viewBox="0 0 486 102" style="enable-background:new 0 0 486 102;" xml:space="preserve">
<style type="text/css">
	.st0{fill:#005B94;}
	.st1{fill:#00AEEF;}
</style>
<path class="st0" d="M196.3,29.5c-0.7-1.9-1.8-3.6-3.2-5s-3.4-2.5-5.7-3.2c-2.3-0.8-5.1-1.1-8.3-1.1h-17.2c-0.3,0-0.5,0.2-0.6,0.5
	l-10.5,49.8c-0.1,0.4,0.2,0.7,0.6,0.7h12.1c0.3,0,0.5-0.2,0.6-0.5l3.3-15.6c0.1-0.3,0.3-0.5,0.6-0.5h7.1c3.3,0,6.4-0.4,9.1-1.2
	c2.7-0.8,5.1-2,7.1-3.6c2-1.6,3.5-3.6,4.6-5.9c1.1-2.3,1.6-5,1.6-8C197.4,33.6,197,31.5,196.3,29.5z M182.2,42
	c-1.5,1.2-3.8,1.8-6.7,1.8h-5.8l0.4-2l2.2-10.2l0,0l0.1-0.5h0.5l0,0h4.9c2.3,0,4,0.5,5.1,1.4c1.1,0.9,1.6,2.3,1.6,4.2
	C184.5,39,183.7,40.8,182.2,42z"/>
<path class="st0" d="M226.9,20.7c0-0.3-0.3-0.5-0.6-0.5h-14.7c-0.2,0-0.4,0.1-0.5,0.3l-27.7,49.8c-0.2,0.4,0.1,0.9,0.5,0.9h12.5
	c0.2,0,0.4-0.1,0.5-0.3l4.6-9.2c0.1-0.2,0.3-0.3,0.5-0.3l15.9-0.1c0.3,0,0.6,0.2,0.7,0.5l1,8.9c0,0.3,0.3,0.5,0.6,0.5h12.8
	c0.4,0,0.6-0.3,0.6-0.7L226.9,20.7z M208.5,50.3L208.5,50.3c-0.5,0-0.8-0.4-0.6-0.9l5.4-10.7l2-4l0,0l1-1.9l0.2,2.1l0,0l1.2,14.7
	l0,0l0,0.7H208.5z"/>
<path class="st0" d="M282.1,29.4c-0.6-1.8-1.7-3.4-3.1-4.8c-1.4-1.4-3.3-2.4-5.6-3.2c-2.3-0.8-5.1-1.2-8.4-1.2h-18.9
	c-0.3,0-0.5,0.2-0.6,0.5L235,70.5c-0.1,0.4,0.2,0.7,0.6,0.7h11.9c0.3,0,0.5-0.2,0.6-0.5l3.7-16.5c0-0.2,0.2-0.4,0.5-0.5l6.6,0
	c0.3,0,0.6,0.1,0.7,0.4l4.8,16.6c0.1,0.3,0.3,0.4,0.6,0.4h12.6c0.4,0,0.7-0.4,0.6-0.8L271.7,52c-0.1-0.3,0-0.6,0.3-0.7
	c3.3-1.4,6-3.4,7.9-6c2-2.8,3.1-6.1,3.1-10C283.1,33.1,282.7,31.2,282.1,29.4z M269,39.4c-0.4,0.9-1,1.5-1.8,2.1
	c-0.8,0.5-1.7,0.9-2.7,1.1c-0.9,0.2-7.2,0-9.5,0c-0.9,0-0.7-0.7-0.7-0.7l2.3-11.1h0.5l0,0h5.8c1.3,0,2.4,0.1,3.3,0.4
	c0.9,0.3,1.6,0.7,2.1,1.2s0.9,1.1,1.1,1.8c0.2,0.7,0.3,1.4,0.3,2.1C269.6,37.5,269.4,38.6,269,39.4z"/>
<path class="st0" d="M147.9,45.2c-1.2-1.2-2.7-2.1-4.5-2.9c-1.7-0.8-3.8-1.4-6-2l-5.6-1.3c-1.9-0.4-3.2-1-4-1.8
	c-0.7-0.8-1.1-1.7-1.1-2.8c0-1.4,0.6-2.6,1.8-3.4c1.2-0.8,2.9-1.2,5.2-1.2c2.4,0,4.2,0.5,5.4,1.5c1.1,0.9,1.8,2.3,2.2,4.2
	c0.1,0.3,0.3,0.5,0.6,0.5l12.2-1.4c0.3,0,0.6-0.3,0.5-0.7c-0.3-2.7-1-5-2-6.8c-1.2-2-2.7-3.6-4.5-4.8c-1.9-1.2-4-2.1-6.3-2.6
	s-4.8-0.8-7.4-0.8c-3.3,0-6.3,0.4-8.9,1.1s-5,1.9-6.8,3.3c-1.9,1.5-3.3,3.2-4.3,5.2c-1,2-1.5,4.4-1.5,6.9c0,3.8,1.1,6.9,3.5,9.4
	c2.3,2.5,6,4.3,11,5.4l5.4,1.2c1.9,0.4,3.2,1,3.9,1.8c0.8,0.8,1.1,1.8,1.1,2.9c0,1.6-0.6,2.8-1.9,3.8c-1.3,1-3.2,1.4-5.7,1.4
	c-2.8,0-4.9-0.6-6.4-1.9c-1.1-0.9-1.8-2.1-2.1-3.6c-0.1-0.3-0.4-0.5-0.7-0.5l-12.4,1.6c-0.3,0-0.6,0.4-0.5,0.7
	c0.3,1.9,0.8,3.5,1.6,5c1.2,2.3,2.8,4.2,4.8,5.6c2,1.4,4.3,2.5,6.9,3.1s5.3,0.9,8.1,0.9c3.5,0,6.7-0.4,9.4-1.3
	c2.8-0.9,5.1-2.1,7-3.6s3.3-3.4,4.3-5.6c1-2.2,1.5-4.6,1.5-7.2c0-2.1-0.3-3.9-0.9-5.5C150.1,47.7,149.1,46.3,147.9,45.2z"/>
<path class="st0" d="M35.2,62.4c-0.1-0.1-0.1-0.1-0.2-0.2C35.1,62.2,35.1,62.3,35.2,62.4z"/>
<path class="st0" d="M73,5.1c0.4-0.4,0.1-1.2-0.6-1c-9,2.1-16.6,5.1-23.2,8.6c-1,0.5-20.2,28.5-14.4,39c0.1,0.2,0.4,0.2,0.6,0
	c2.7-5.5,8.5-11.2,16.2-15.2C52.2,36.1,56.5,20.8,73,5.1z"/>
<path class="st0" d="M91.4,1.4C83,6.6,68.1,16.6,58.5,31.7c-0.4,0.7,0.2,1.6,1.1,1.3c16.8-5.7,26-0.1,29.3,2.6
	c0.6,0.5,1.4,0.1,1.5-0.6c0.3-2.7,1.5-8.1,6.1-16.3c4.1-7.3,10.4-13.5,13.4-16.2c0.6-0.5,0.2-1.5-0.6-1.5c-6-0.2-12.1-0.2-17.4,0.2
	C91.7,1.3,91.5,1.3,91.4,1.4z"/>
<path class="st0" d="M34.3,24.8c0.3-0.6-0.4-1.1-0.9-0.7C21,35.9,16.5,48.7,16.7,53.8c0.1,3.2,1.1,13.9,11.9,15.2
	c5.4,0.7,11-2.2,13.6-3.8c0.5-0.3,0.3-1-0.2-1.1C36.1,63.4,17.8,58.6,34.3,24.8z"/>
<path class="st1" d="M75.8,37.4c-9.1-0.8-14.6,3.7-16.2,5.4c-0.1,0.1,0,0.3,0.2,0.3c1.6-0.6,5.7-1.8,8.4-0.6
	c3.3,1.3,7.3,6.2-4.8,23.6c-11,15.8-35.8,28-61.3,34c-0.6,0.1-0.4,0.9,0.1,0.9c69.6-0.9,89.8-32.3,90.5-47.7
	C93.1,47.3,89.4,38.6,75.8,37.4z"/>
<path class="st1" d="M59.7,63.5c0.1-0.1-0.1-0.2-0.1-0.1c-3.4,3.1-7.8,5.8-12.7,8c-23.9,10.8-32.2-0.2-33.9-3.2
	c-0.1-0.2-0.5-0.2-0.5,0.1c-0.4,2-1.9,7.7-4.2,12.9c-2.4,5.4-5.4,10.2-6.7,12.4c-0.1,0.2,0.1,0.5,0.3,0.5
	c10.7-1.9,25.8-6.9,38.2-14.1C48.6,75,55.2,69.1,59.7,63.5z"/>
<path class="st0" d="M291.6,70.9l8.1-38.7c0-0.2-0.1-0.5-0.4-0.5H286c-0.3,0-0.5-0.2-0.4-0.5l2.2-10.7c0-0.2,0.2-0.3,0.4-0.3h41
	c0.3,0,0.5,0.2,0.4,0.5l-2.2,10.7c0,0.2-0.2,0.3-0.4,0.3h-13.6c-0.2,0-0.4,0.1-0.4,0.3l-8.2,39c0,0.2-0.2,0.3-0.4,0.3H292
	C291.7,71.3,291.6,71.1,291.6,70.9z"/>
<path class="st0" d="M322.2,70.9l10.6-50.4c0-0.2,0.2-0.3,0.4-0.3h36.7c0.3,0,0.5,0.2,0.4,0.5L368,31.4c0,0.2-0.2,0.3-0.4,0.3h-23.7
	c-0.2,0-0.4,0.1-0.4,0.3l-1.5,7.2c0,0.2,0.1,0.5,0.4,0.5h22.8c0.3,0,0.5,0.2,0.4,0.5l-2.2,10.7c0,0.2-0.2,0.3-0.4,0.3h-23.1
	c-0.2,0-0.4,0.1-0.4,0.3l-1.6,7.9c0,0.2,0.1,0.5,0.4,0.5h23.3c0.3,0,0.5,0.2,0.4,0.5L359.6,71c0,0.2-0.2,0.3-0.4,0.3h-36.7
	C322.3,71.3,322.1,71.1,322.2,70.9z"/>
<path class="st0" d="M367.7,45.8c3.3-15.8,17.5-26.5,33.2-26.5c12.1,0,17.4,6.7,19.4,13.3c0.1,0.2,0,0.4-0.2,0.5l-11.7,5.1
	c-0.2,0.1-0.5,0-0.5-0.3c-1-3.9-4.6-7-9.3-7c-8.4,0-15.6,6.4-17.4,14.8c-1.8,8.4,2.8,14.8,11.2,14.8c4.8,0,9.7-3.2,12.3-7.1
	c0.1-0.2,0.3-0.2,0.5-0.1l9.5,5c0.2,0.1,0.3,0.4,0.1,0.6c-4.7,6.4-12.8,13.4-24.9,13.4C374.1,72.3,364.4,61.5,367.7,45.8z"/>
<path class="st0" d="M450.1,70.9l4.1-19.6c0-0.2-0.1-0.5-0.4-0.5l-20.4,0.1c-0.2,0-0.4,0.1-0.4,0.3L428.8,71c0,0.2-0.2,0.3-0.4,0.3
	H416c-0.3,0-0.5-0.2-0.4-0.5l10.6-50.4c0-0.2,0.2-0.3,0.4-0.3H439c0.3,0,0.5,0.2,0.4,0.5l-3.8,18.2c0,0.2,0.1,0.5,0.4,0.5l20.4-0.1
	c0.2,0,0.4-0.1,0.4-0.3l3.9-18.5c0-0.2,0.2-0.3,0.4-0.3h12.4c0.3,0,0.5,0.2,0.4,0.5L463.2,71c0,0.2-0.2,0.3-0.4,0.3h-12.4
	C450.2,71.3,450,71.1,450.1,70.9z"/>
<g>
	<path class="st0" d="M480.5,29.4c-2.2,0-4-1.8-4-4c0-2.2,1.8-4,4-4c2.2,0,4,1.8,4,4C484.5,27.6,482.7,29.4,480.5,29.4z M480.5,22
		c-1.9,0-3.4,1.5-3.4,3.4c0,1.8,1.5,3.4,3.4,3.4s3.4-1.5,3.4-3.4C483.9,23.5,482.4,22,480.5,22z M481.6,27.7l-1.2-1.8h-0.7v1.8h-0.7
		v-4.6h1.9c0.8,0,1.6,0.5,1.6,1.4c0,1-0.9,1.4-1.2,1.4l1.2,1.8H481.6z M480.8,23.7h-1.2v1.6h1.2c0.4,0,0.8-0.3,0.8-0.8
		C481.7,24,481.2,23.7,480.8,23.7z"/>
</g>
</svg>
